<?xml version="1.0" standalone="no"?>
<!DOCTYPE svg PUBLIC "-//W3C//DTD SVG 20010904//EN"
 "http://www.w3.org/TR/2001/REC-SVG-20010904/DTD/svg10.dtd">
<svg version="1.0" xmlns="http://www.w3.org/2000/svg"
 width="512.000000pt" height="512.000000pt" viewBox="0 0 512.000000 512.000000"
 preserveAspectRatio="xMidYMid meet">

<g transform="translate(0.000000,512.000000) scale(0.100000,-0.100000)"
fill="#000000" stroke="none">
<path d="M882 4919 c-132 -17 -268 -111 -331 -228 -56 -106 -61 -152 -61 -600
0 -380 -1 -403 -17 -396 -10 3 -42 11 -72 16 -145 27 -303 -57 -368 -196 -25
-54 -28 -73 -31 -192 -3 -98 0 -145 12 -185 31 -107 115 -197 216 -233 25 -9
93 -19 152 -22 l108 -6 2 -1226 3 -1226 28 -57 c33 -67 80 -111 157 -146 51
-24 68 -26 235 -30 270 -6 364 15 442 101 52 58 75 118 81 214 l5 83 1117 0
1117 0 5 -85 c9 -143 65 -227 188 -283 51 -24 68 -26 235 -30 100 -2 210 0
248 6 121 19 195 73 249 181 l23 46 3 1226 2 1226 108 6 c59 3 127 13 152 22
101 36 185 126 216 233 12 40 15 87 12 186 -3 125 -5 135 -36 198 -53 107
-142 172 -268 193 -39 6 -126 -4 -166 -20 -17 -7 -18 16 -18 396 0 437 -5 491
-54 586 -66 131 -199 224 -346 243 -92 12 -3257 11 -3348 -1z m3408 -224 c68
-38 115 -98 130 -168 6 -29 9 -120 8 -202 l-3 -150 -596 -3 -596 -2 -7 42
c-16 97 -69 173 -150 216 l-51 27 -439 3 c-515 3 -516 3 -601 -81 -53 -53 -85
-121 -85 -179 l0 -28 -602 2 -603 3 -3 150 c-3 172 8 238 48 294 34 47 108 92
164 102 23 4 781 6 1686 5 l1645 -1 55 -30z m-1306 -446 c40 -18 48 -55 44
-194 -3 -119 -4 -128 -27 -146 -22 -18 -45 -19 -441 -19 l-419 0 -20 26 c-19
24 -21 40 -21 161 0 129 1 135 25 158 l24 25 405 0 c280 0 413 -3 430 -11z
m-1080 -326 c8 -58 55 -144 95 -172 16 -12 49 -30 73 -41 41 -18 67 -20 493
-20 l450 0 50 24 c84 39 144 119 160 215 l7 41 599 0 599 0 0 -690 0 -690
-705 0 c-757 0 -748 1 -775 -49 -20 -39 -12 -91 19 -122 l29 -29 717 0 716 0
-3 -499 -3 -498 -35 -69 c-34 -66 -44 -76 -288 -275 -150 -123 -274 -216 -305
-230 l-52 -24 -1185 0 c-1109 0 -1188 1 -1236 18 -39 13 -110 67 -302 227
-139 116 -263 227 -276 248 -53 79 -56 116 -56 629 l0 473 750 0 750 0 31 28
c23 21 31 37 32 64 1 42 -24 85 -59 98 -15 6 -319 10 -765 10 l-739 0 0 690 0
690 604 0 603 0 7 -47z m-1497 -423 c75 -33 83 -59 83 -254 l0 -168 -95 4
c-105 4 -130 16 -173 78 -19 29 -22 45 -22 139 0 90 3 111 21 141 26 42 44 57
84 69 44 14 56 13 102 -9z m4428 0 c67 -32 85 -76 85 -202 0 -92 -3 -109 -22
-138 -43 -62 -68 -74 -173 -78 l-95 -4 0 168 c0 195 8 221 83 254 53 25 71 25
122 0z m-3909 -2641 c117 -98 235 -189 263 -204 l51 -25 0 -69 c0 -83 -13
-124 -48 -148 -24 -16 -50 -18 -227 -18 -222 0 -243 5 -264 67 -16 46 -15 592
1 582 7 -4 108 -88 224 -185z m3504 -90 c0 -233 -3 -287 -15 -314 -27 -56 -47
-60 -264 -60 -173 0 -199 2 -223 18 -35 24 -48 65 -48 152 l0 72 38 17 c21 9
141 102 267 206 127 104 233 189 238 189 4 1 7 -125 7 -280z"/>
<path d="M2565 2581 c-37 -16 -60 -51 -60 -93 0 -53 47 -98 101 -98 78 0 125
103 73 159 -34 36 -75 48 -114 32z"/>
<path d="M1320 2049 c-120 -23 -230 -110 -287 -227 -37 -73 -38 -80 -38 -181
0 -98 2 -111 32 -173 61 -129 171 -214 311 -240 174 -32 361 64 443 230 28 58
34 80 37 158 3 69 0 105 -13 145 -67 208 -272 330 -485 288z m193 -221 c126
-70 145 -258 36 -351 -72 -63 -155 -73 -240 -29 -76 38 -112 92 -117 177 -3
51 0 73 18 110 54 111 192 154 303 93z"/>
<path d="M3620 2050 c-168 -35 -305 -181 -328 -348 -18 -131 20 -253 107 -345
134 -142 329 -175 503 -86 65 33 145 120 181 196 29 63 32 76 32 168 -1 116
-20 178 -82 259 -93 122 -265 186 -413 156z m196 -225 c107 -63 135 -218 58
-321 -29 -39 -116 -84 -162 -84 -126 0 -224 96 -224 220 0 171 180 272 328
185z"/>
<path d="M2254 1670 c-73 -30 -71 -141 3 -179 14 -7 114 -11 298 -11 184 0
284 4 298 11 60 31 76 106 33 156 l-24 28 -294 2 c-161 1 -303 -2 -314 -7z"/>
<path d="M2129 1231 c-40 -40 -40 -89 0 -133 l29 -33 397 0 397 0 29 33 c40
44 40 93 0 133 l-29 29 -397 0 -397 0 -29 -29z"/>
</g>
</svg>
