<?xml version="1.0" standalone="no"?>
<!DOCTYPE svg PUBLIC "-//W3C//DTD SVG 20010904//EN"
 "http://www.w3.org/TR/2001/REC-SVG-20010904/DTD/svg10.dtd">
<svg version="1.0" xmlns="http://www.w3.org/2000/svg"
 width="512.000000pt" height="512.000000pt" viewBox="0 0 512.000000 512.000000"
 preserveAspectRatio="xMidYMid meet">

<g transform="translate(0.000000,512.000000) scale(0.100000,-0.100000)"
fill="#000000" stroke="none">
<path d="M1875 5113 c-170 -15 -417 -72 -567 -132 -174 -69 -367 -178 -513
-290 -84 -64 -266 -242 -338 -331 -226 -280 -374 -617 -434 -985 -24 -149 -24
-448 0 -600 56 -362 203 -698 425 -977 l61 -76 3 -614 c4 -678 1 -641 72 -788
44 -92 157 -203 256 -253 140 -70 104 -68 1243 -65 l1022 3 75 27 c148 54 273
165 339 300 49 101 61 165 62 333 l0 150 115 84 c63 47 170 138 238 202 425
407 707 938 804 1514 l19 110 57 7 c31 4 77 16 101 27 63 28 140 104 172 170
36 74 38 200 5 274 -30 66 -112 150 -175 178 -51 23 -60 24 -378 27 -343 3
-339 4 -449 -42 -12 -5 -19 16 -37 108 -157 805 -796 1445 -1603 1605 -186 36
-401 49 -575 34z m449 -189 c592 -84 1114 -458 1390 -994 143 -278 206 -541
206 -860 0 -319 -64 -584 -206 -860 -243 -469 -672 -815 -1176 -950 -312 -83
-656 -84 -967 -4 -221 57 -472 181 -666 327 -234 177 -456 460 -575 735 -186
429 -207 896 -60 1342 128 391 392 737 735 965 400 266 846 367 1319 299z
m2519 -1698 c46 -19 94 -77 102 -124 13 -79 -34 -164 -108 -191 -18 -7 -138
-11 -320 -11 -284 0 -293 1 -332 23 -58 33 -85 78 -85 144 0 78 26 121 95 157
41 22 597 24 648 2z m-673 -477 c36 -13 66 -23 67 -23 5 -3 -39 -202 -62 -280
-71 -244 -199 -501 -350 -701 -69 -91 -223 -265 -236 -265 -5 0 -9 52 -9 116
l0 116 62 77 c201 249 351 568 410 874 18 94 26 117 38 113 8 -3 44 -15 80
-27z m410 -38 c0 -37 -40 -228 -70 -336 -136 -484 -414 -917 -800 -1247 -63
-54 -118 -98 -122 -98 -5 0 -8 46 -8 102 l0 101 128 126 c230 225 388 449 516
731 78 171 146 391 177 573 l11 67 84 0 c77 0 84 -2 84 -19z m-3808 -1238
c454 -366 1049 -518 1635 -418 323 56 654 207 926 424 l78 62 -3 -528 -3 -528
-33 -67 c-45 -93 -114 -160 -209 -206 l-78 -37 -1009 -3 c-1102 -3 -1074 -4
-1175 55 -113 66 -193 184 -211 313 -10 65 -14 1000 -5 1000 2 0 42 -30 87
-67z"/>
<path d="M1410 4650 c-52 -22 -103 -49 -112 -61 -26 -31 -23 -75 7 -104 38
-39 54 -38 193 17 111 44 140 73 128 124 -19 74 -79 81 -216 24z"/>
<path d="M968 4388 c-137 -107 -303 -302 -401 -473 -127 -221 -203 -480 -221
-757 -10 -134 8 -168 88 -168 57 0 74 30 81 145 29 439 217 830 524 1089 45
37 86 77 91 87 29 53 -11 119 -74 119 -25 0 -48 -11 -88 -42z"/>
<path d="M1934 3829 c-425 -65 -718 -476 -639 -894 94 -501 634 -776 1088
-554 198 96 352 284 408 496 29 108 29 278 0 386 -86 324 -371 555 -706 571
-49 3 -117 1 -151 -5z m277 -185 c255 -75 430 -306 431 -570 1 -104 -15 -170
-65 -273 -109 -224 -368 -360 -612 -321 -256 41 -450 226 -501 479 -45 228 54
471 245 600 67 45 169 87 243 100 68 13 190 5 259 -15z"/>
<path d="M1955 3400 c-16 -5 -55 -24 -85 -42 -151 -91 -204 -289 -120 -446 39
-73 83 -115 160 -151 46 -22 69 -26 140 -26 71 0 94 4 142 27 69 32 129 92
165 166 24 49 28 69 28 142 0 70 -5 95 -26 140 -56 120 -165 191 -299 196 -41
2 -88 -1 -105 -6z m158 -174 c44 -18 95 -78 103 -121 19 -104 -64 -205 -169
-205 -52 0 -119 39 -144 85 -79 140 63 303 210 241z"/>
<path d="M1073 1000 c-95 -38 -184 -139 -207 -235 -26 -107 7 -234 82 -314 69
-73 145 -105 247 -105 93 0 165 27 234 89 49 45 97 141 106 212 17 133 -62
275 -190 341 -70 36 -197 41 -272 12z m196 -165 c16 -8 40 -28 55 -45 125
-150 -63 -358 -224 -247 -70 47 -93 160 -47 228 49 73 144 102 216 64z"/>
<path d="M2788 1002 c-147 -53 -239 -197 -225 -349 8 -87 46 -161 113 -222
166 -152 424 -103 531 101 25 47 28 64 28 148 0 84 -3 102 -28 152 -35 71
-110 140 -183 167 -68 26 -170 27 -236 3z m189 -168 c113 -54 125 -220 20
-291 -105 -72 -249 -4 -263 123 -15 129 123 224 243 168z"/>
</g>
</svg>
