<?xml version="1.0" standalone="no"?>
<!DOCTYPE svg PUBLIC "-//W3C//DTD SVG 20010904//EN"
 "http://www.w3.org/TR/2001/REC-SVG-20010904/DTD/svg10.dtd">
<svg version="1.0" xmlns="http://www.w3.org/2000/svg"
 width="512.000000pt" height="512.000000pt" viewBox="0 0 512.000000 512.000000"
 preserveAspectRatio="xMidYMid meet">

<g transform="translate(0.000000,512.000000) scale(0.100000,-0.100000)"
fill="#000000" stroke="none">
<path d="M2360 5109 c-319 -36 -626 -158 -872 -345 -98 -75 -275 -250 -353
-349 -279 -355 -420 -852 -359 -1263 66 -445 395 -1109 1051 -2119 81 -126
247 -377 368 -560 121 -182 236 -358 256 -390 30 -49 42 -61 77 -71 34 -11 48
-10 69 0 38 18 639 917 959 1434 439 710 699 1255 774 1626 89 435 -46 962
-345 1343 -80 102 -259 279 -354 350 -356 268 -824 395 -1271 344z m502 -218
c621 -125 1115 -602 1256 -1216 64 -278 51 -515 -46 -795 -129 -374 -408 -897
-827 -1550 -169 -264 -639 -977 -665 -1010 l-20 -25 -20 25 c-23 29 -458 689
-630 955 -537 832 -838 1429 -927 1835 -26 124 -24 367 6 510 46 220 132 425
254 605 84 124 294 333 417 414 220 146 465 239 712 271 111 14 377 3 490 -19z"/>
<path d="M2395 4460 c-318 -50 -624 -238 -794 -488 -231 -340 -264 -778 -86
-1149 58 -123 112 -200 209 -301 107 -112 189 -172 321 -237 340 -167 693
-167 1030 0 133 65 214 126 321 237 97 101 151 178 209 301 156 326 153 684
-10 1012 -66 134 -129 218 -239 321 -144 136 -312 226 -524 280 -109 29 -329
40 -437 24z m326 -205 c207 -36 373 -122 517 -267 282 -286 358 -689 199
-1057 -169 -392 -622 -634 -1038 -555 -455 86 -773 445 -796 899 -16 311 121
600 379 801 201 156 482 224 739 179z"/>
</g>
</svg>
