<?xml version="1.0" standalone="no"?>
<!DOCTYPE svg PUBLIC "-//W3C//DTD SVG 20010904//EN"
 "http://www.w3.org/TR/2001/REC-SVG-20010904/DTD/svg10.dtd">
<svg version="1.0" xmlns="http://www.w3.org/2000/svg"
 width="512.000000pt" height="512.000000pt" viewBox="0 0 512.000000 512.000000"
 preserveAspectRatio="xMidYMid meet">

<g transform="translate(0.000000,512.000000) scale(0.100000,-0.100000)"
fill="#000000" stroke="none">
<path d="M2240 4995 c-629 -95 -1169 -439 -1521 -969 -240 -360 -361 -768
-362 -1211 0 -211 16 -355 61 -534 l27 -108 -55 -29 c-72 -37 -170 -135 -203
-204 -56 -115 -58 -144 -55 -824 l3 -621 24 -63 c65 -176 224 -301 412 -322
113 -13 3865 -13 3978 0 214 24 382 177 427 388 11 53 14 187 14 657 0 643 -2
669 -57 782 -35 73 -141 180 -208 211 l-51 23 28 109 c125 500 68 1034 -163
1499 -247 500 -634 861 -1153 1076 -110 45 -297 99 -440 126 -146 28 -558 36
-706 14z m714 -180 c71 -14 184 -44 250 -65 115 -38 377 -157 389 -177 6 -9
-74 -74 -177 -143 -98 -66 -115 -191 -38 -273 34 -36 92 -66 207 -107 184 -65
399 -92 560 -72 56 8 83 7 92 0 43 -35 193 -322 242 -461 l31 -88 -32 -27
c-136 -116 -207 -148 -313 -140 -33 3 -79 15 -102 26 -60 31 -118 103 -143
176 -30 90 -61 130 -125 162 -107 52 -193 23 -460 -156 -298 -200 -390 -324
-389 -525 2 -148 45 -227 216 -396 59 -58 108 -111 108 -117 0 -6 -14 -19 -31
-27 -69 -36 -149 -132 -149 -180 0 -13 -74 -15 -675 -15 -394 0 -675 4 -675 9
0 18 92 130 151 185 33 31 86 74 118 96 110 74 155 151 155 265 0 113 -56 209
-173 300 -74 56 -138 87 -246 120 -139 41 -302 141 -397 242 -66 72 -91 125
-92 198 -1 81 35 145 144 255 142 144 235 193 410 215 58 7 122 19 142 28 20
8 72 48 115 88 43 40 102 84 133 98 52 24 64 26 235 27 142 1 193 5 244 19
128 37 190 145 145 253 -19 46 -47 75 -149 160 -44 36 -84 70 -90 75 -19 18
237 -1 369 -28z m-550 -39 c113 -81 264 -207 271 -225 16 -41 -93 -64 -265
-55 -195 10 -296 -25 -430 -151 -83 -77 -87 -79 -216 -94 -44 -6 -102 -17
-130 -27 -135 -45 -284 -150 -397 -281 -198 -228 -192 -436 18 -648 112 -113
301 -227 431 -259 184 -46 344 -193 320 -293 -12 -46 -32 -69 -118 -135 -119
-90 -214 -192 -282 -302 l-60 -96 -166 0 -167 0 -6 63 c-12 133 -76 258 -199
394 -43 47 -78 92 -78 101 -1 10 -2 94 -4 187 -2 138 -7 185 -25 250 -30 108
-99 246 -166 328 -30 37 -55 72 -55 77 0 21 111 229 170 319 89 136 160 222
275 336 295 293 669 485 1090 559 44 8 85 15 90 15 6 0 50 -28 99 -63z m1421
-362 c80 -63 285 -262 285 -277 0 -21 -239 0 -360 31 -127 33 -260 88 -260
108 0 7 30 33 68 58 37 25 92 66 122 91 30 25 59 45 65 45 5 0 42 -25 80 -56z
m-96 -933 c9 -5 30 -44 46 -85 69 -180 204 -281 391 -293 120 -8 219 25 332
109 30 22 55 38 57 36 2 -2 12 -46 21 -98 23 -121 27 -533 5 -650 -17 -100
-47 -229 -60 -263 l-11 -27 -624 0 c-504 0 -624 2 -620 13 2 7 29 27 58 45 42
25 60 44 80 84 53 107 37 148 -124 306 -150 147 -174 188 -174 292 1 123 45
186 230 325 98 74 332 215 357 215 10 0 26 -4 36 -9z m-3039 -176 c63 -127 73
-176 75 -372 2 -217 10 -245 89 -331 128 -141 183 -235 193 -336 l6 -56 -226
0 -225 0 -20 78 c-89 333 -91 681 -6 1022 14 58 29 109 31 114 9 13 39 -30 83
-119z m3920 -1282 c69 -22 150 -96 187 -171 l28 -57 0 -640 0 -640 -28 -57
c-36 -73 -119 -150 -189 -175 -51 -17 -139 -18 -2048 -18 -1909 0 -1997 1
-2048 18 -70 25 -153 102 -189 175 l-28 57 0 640 c0 635 0 640 22 687 39 85
126 162 213 189 14 4 926 8 2026 8 1856 1 2006 0 2054 -16z"/>
<path d="M845 1601 c-11 -5 -29 -19 -40 -31 -19 -21 -20 -38 -23 -416 l-3
-395 30 -29 c31 -31 59 -37 91 -20 41 22 45 45 50 325 l5 270 64 -100 c253
-392 310 -472 344 -488 52 -25 84 -21 118 12 l29 29 0 400 c0 444 1 435 -67
448 -27 5 -37 1 -63 -24 l-30 -30 0 -284 0 -283 -198 300 c-218 331 -233 346
-307 316z"/>
<path d="M2479 1581 c-16 -17 -29 -40 -29 -54 0 -41 179 -747 197 -778 41 -69
143 -60 186 16 3 6 42 143 86 304 44 162 82 296 84 297 2 2 38 -125 81 -284
43 -158 84 -302 91 -319 31 -73 137 -82 181 -15 24 35 195 712 197 777 1 42
-24 72 -70 81 -51 10 -86 -32 -108 -131 -39 -179 -114 -500 -114 -493 -1 7
-136 505 -147 541 -3 9 -17 30 -30 47 -53 62 -150 45 -184 -32 -10 -24 -49
-157 -86 -297 -47 -177 -70 -248 -76 -235 -4 11 -33 132 -63 269 -30 138 -60
263 -67 278 -24 61 -83 74 -129 28z"/>
<path d="M3893 1600 c-189 -38 -282 -188 -207 -338 40 -81 103 -115 323 -173
111 -29 151 -62 151 -126 0 -38 -5 -50 -33 -78 -55 -55 -148 -70 -222 -36 -49
22 -68 43 -95 103 -21 49 -61 88 -89 88 -25 0 -61 -29 -72 -57 -14 -37 13
-120 55 -169 120 -141 415 -152 554 -20 57 53 77 101 77 187 0 67 -3 81 -30
124 -40 64 -114 104 -269 145 -171 45 -210 70 -208 131 2 65 72 104 173 97 67
-5 100 -29 145 -105 39 -68 86 -82 129 -38 35 34 33 88 -4 147 -63 99 -222
148 -378 118z"/>
<path d="M1739 1571 l-24 -19 -3 -391 -3 -391 25 -25 25 -25 294 0 c272 0 295
1 310 18 17 19 22 68 9 88 -19 29 -55 34 -266 34 l-216 0 0 125 0 125 203 0
c185 0 205 2 220 18 25 27 22 78 -5 96 -19 13 -57 16 -220 16 l-198 0 0 110 0
110 220 0 c207 0 221 1 240 20 11 11 20 31 20 45 0 14 -9 34 -20 45 -19 19
-33 20 -304 20 -264 0 -285 -1 -307 -19z"/>
</g>
</svg>
