<?xml version="1.0" standalone="no"?>
<!DOCTYPE svg PUBLIC "-//W3C//DTD SVG 20010904//EN"
 "http://www.w3.org/TR/2001/REC-SVG-20010904/DTD/svg10.dtd">
<svg version="1.0" xmlns="http://www.w3.org/2000/svg"
 width="512.000000pt" height="512.000000pt" viewBox="0 0 512.000000 512.000000"
 preserveAspectRatio="xMidYMid meet">

<g transform="translate(0.000000,512.000000) scale(0.100000,-0.100000)"
fill="#000000" stroke="none">
<path d="M25 5095 l-25 -24 0 -1991 0 -1991 25 -24 c31 -32 69 -32 100 0 l25
24 0 1941 0 1940 2410 0 2410 0 0 -278 c0 -266 1 -279 20 -300 14 -14 33 -22
55 -22 22 0 41 8 55 22 19 21 20 34 20 350 l0 329 -25 24 -24 25 -2511 0
-2511 0 -24 -25z"/>
<path d="M1600 4750 c-19 -19 -20 -33 -20 -205 0 -177 1 -185 22 -205 22 -20
30 -20 958 -20 928 0 936 0 958 20 21 20 22 28 22 205 0 172 -1 186 -20 205
-20 20 -33 20 -960 20 -927 0 -940 0 -960 -20z m1790 -205 l0 -75 -830 0 -830
0 0 75 0 75 830 0 830 0 0 -75z"/>
<path d="M4992 4137 l-22 -23 0 -1982 0 -1982 -2410 0 -2410 0 0 320 0 321
-25 24 c-31 32 -69 32 -100 0 l-25 -24 0 -371 0 -371 25 -24 24 -25 2511 0
2511 0 24 25 25 24 0 2034 0 2034 -23 21 c-31 29 -77 29 -105 -1z"/>
<path d="M353 4090 c-56 -23 -54 16 -51 -899 l3 -843 24 -19 c22 -18 49 -19
697 -19 658 0 674 0 694 20 11 11 22 30 25 42 3 13 4 395 3 850 l-3 827 -23
23 -23 23 -662 2 c-371 1 -672 -2 -684 -7z m1242 -220 l0 -75 -572 -3 -573 -2
0 73 c0 41 3 77 7 80 3 4 261 6 572 5 l566 -3 0 -75z m5 -820 l0 -590 -575 0
-575 0 0 590 0 590 575 0 575 0 0 -590z"/>
<path d="M572 3517 c-29 -31 -29 -80 0 -107 21 -19 33 -20 453 -20 l432 0 21
23 c31 33 29 80 -4 106 -26 21 -37 21 -454 21 l-427 0 -21 -23z"/>
<path d="M600 3233 c-52 -19 -68 -85 -30 -123 19 -19 33 -20 455 -20 422 0
436 1 455 20 27 27 26 81 -1 106 -20 18 -44 19 -443 21 -231 1 -428 -1 -436
-4z"/>
<path d="M570 2910 c-27 -27 -26 -81 1 -106 20 -18 42 -19 454 -19 412 0 434
1 454 19 27 25 28 79 1 106 -19 19 -33 20 -455 20 -422 0 -436 -1 -455 -20z"/>
<path d="M1884 4086 c-17 -8 -34 -21 -38 -31 -3 -9 -6 -396 -6 -859 l0 -843
23 -21 23 -22 675 0 676 0 21 23 22 23 0 843 c0 530 -4 849 -10 861 -20 38
-52 40 -714 40 -515 -1 -647 -3 -672 -14z m1246 -216 l0 -80 -570 0 -570 0 0
80 0 80 570 0 570 0 0 -80z m0 -820 l0 -590 -570 0 -570 0 0 590 0 590 570 0
570 0 0 -590z"/>
<path d="M2105 3515 c-14 -13 -25 -36 -25 -50 0 -14 11 -37 25 -50 l24 -25
431 0 431 0 24 25 c14 13 25 36 25 50 0 14 -11 37 -25 50 l-24 25 -431 0 -431
0 -24 -25z"/>
<path d="M2125 3228 c-49 -26 -58 -69 -24 -112 l20 -26 439 0 439 0 20 26 c34
43 26 86 -20 109 -23 13 -98 15 -441 15 -280 -1 -419 -4 -433 -12z"/>
<path d="M2101 2904 c-12 -15 -21 -33 -21 -40 0 -26 23 -62 47 -73 16 -7 155
-11 433 -11 278 0 417 4 433 11 24 11 47 47 47 73 0 7 -9 25 -21 40 l-20 26
-439 0 -439 0 -20 -26z"/>
<path d="M3420 4087 c-51 -26 -50 -5 -50 -885 0 -873 0 -868 45 -886 9 -3 317
-6 685 -6 643 0 669 1 691 19 l24 19 3 845 2 845 -24 29 -24 28 -664 2 c-519
2 -668 0 -688 -10z m1248 -220 l3 -77 -573 2 -573 3 -3 64 c-2 35 -1 70 2 78
5 11 101 13 573 11 l568 -3 3 -78z m2 -817 l0 -590 -575 0 -575 0 0 590 0 590
575 0 575 0 0 -590z"/>
<path d="M3646 3519 c-34 -27 -36 -77 -3 -107 23 -22 26 -22 453 -22 419 0
431 1 452 20 30 28 29 80 -1 108 -23 22 -26 22 -449 22 -415 0 -426 0 -452
-21z"/>
<path d="M3670 3233 c-52 -19 -68 -85 -30 -123 19 -19 33 -20 455 -20 422 0
436 1 455 20 27 27 26 81 -1 106 -20 18 -44 19 -443 21 -231 1 -428 -1 -436
-4z"/>
<path d="M3640 2910 c-27 -27 -26 -81 1 -106 20 -18 42 -19 454 -19 412 0 434
1 454 19 27 25 28 79 1 106 -19 19 -33 20 -455 20 -422 0 -436 -1 -455 -20z"/>
<path d="M363 2083 c-13 -2 -32 -16 -43 -30 -20 -26 -20 -34 -18 -870 l3 -845
24 -19 c22 -18 49 -19 697 -19 658 0 674 0 694 20 11 11 22 30 25 42 3 13 4
395 3 850 l-3 827 -23 23 -23 23 -657 1 c-361 1 -667 0 -679 -3z m1232 -223
l0 -75 -572 -3 -573 -2 0 73 c0 41 3 77 7 80 3 4 261 6 572 5 l566 -3 0 -75z
m5 -820 l0 -590 -575 0 -575 0 0 590 0 590 575 0 575 0 0 -590z"/>
<path d="M576 1509 c-34 -27 -36 -79 -4 -109 21 -19 33 -20 453 -20 l432 0 21
23 c31 33 29 80 -4 106 -26 20 -37 21 -449 21 -412 0 -423 -1 -449 -21z"/>
<path d="M600 1223 c-52 -19 -68 -85 -30 -123 19 -19 33 -20 455 -20 422 0
436 1 455 20 27 27 26 81 -1 106 -20 18 -44 19 -443 21 -231 1 -428 -1 -436
-4z"/>
<path d="M570 900 c-27 -27 -26 -81 1 -106 20 -18 42 -19 454 -19 412 0 434 1
454 19 27 25 28 79 1 106 -19 19 -33 20 -455 20 -422 0 -436 -1 -455 -20z"/>
<path d="M1884 2076 c-17 -8 -34 -21 -38 -31 -3 -9 -6 -396 -6 -859 l0 -843
23 -21 23 -22 675 0 676 0 21 23 22 23 0 843 c0 530 -4 849 -10 861 -20 38
-52 40 -714 40 -515 -1 -647 -3 -672 -14z m1246 -216 l0 -80 -570 0 -570 0 0
80 0 80 570 0 570 0 0 -80z m0 -820 l0 -590 -570 0 -570 0 0 590 0 590 570 0
570 0 0 -590z"/>
<path d="M2105 1505 c-14 -13 -25 -36 -25 -50 0 -14 11 -37 25 -50 l24 -25
431 0 431 0 24 25 c14 13 25 36 25 50 0 14 -11 37 -25 50 l-24 25 -431 0 -431
0 -24 -25z"/>
<path d="M2125 1218 c-48 -28 -57 -70 -24 -112 l20 -26 439 0 439 0 20 26 c12
15 21 33 21 40 0 26 -23 62 -47 73 -34 16 -840 15 -868 -1z"/>
<path d="M2101 894 c-12 -15 -21 -33 -21 -40 0 -26 23 -62 47 -73 16 -7 155
-11 433 -11 278 0 417 4 433 11 24 11 47 47 47 73 0 7 -9 25 -21 40 l-20 26
-439 0 -439 0 -20 -26z"/>
<path d="M3434 2083 c-12 -2 -30 -13 -40 -25 -18 -19 -19 -58 -22 -847 -1
-454 0 -836 3 -849 3 -12 14 -31 25 -42 20 -20 36 -20 694 -20 648 0 675 1
697 19 l24 19 3 845 2 845 -24 29 -24 28 -659 1 c-362 1 -668 0 -679 -3z
m1234 -226 l3 -77 -573 2 -573 3 -3 64 c-2 35 -1 70 2 78 5 11 101 13 573 11
l568 -3 3 -78z m2 -817 l0 -590 -575 0 -575 0 0 590 0 590 575 0 575 0 0 -590z"/>
<path d="M3646 1509 c-34 -27 -36 -77 -3 -107 23 -22 26 -22 453 -22 419 0
431 1 452 20 32 30 30 82 -4 109 -26 20 -37 21 -449 21 -412 0 -423 -1 -449
-21z"/>
<path d="M3670 1223 c-52 -19 -68 -85 -30 -123 19 -19 33 -20 455 -20 422 0
436 1 455 20 27 27 26 81 -1 106 -20 18 -44 19 -443 21 -231 1 -428 -1 -436
-4z"/>
<path d="M3640 900 c-27 -27 -26 -81 1 -106 20 -18 42 -19 454 -19 412 0 434
1 454 19 27 25 28 79 1 106 -19 19 -33 20 -455 20 -422 0 -436 -1 -455 -20z"/>
</g>
</svg>
